<?xml version="1.0" encoding="UTF-8"?>
<svg width="147px" height="46px" viewBox="0 0 147 46" version="1.1" xmlns="http://www.w3.org/2000/svg" xmlns:xlink="http://www.w3.org/1999/xlink">
    <!-- Generator: Sketch 50.2 (55047) - http://www.bohemiancoding.com/sketch -->
    <title>Untitled 3</title>
    <desc>Created with Sketch.</desc>
    <defs></defs>
    <g id="Page-1" stroke="none" stroke-width="1" fill="none" fill-rule="evenodd">
        <g id="wmms-blk-ca" transform="translate(0.000000, 10.000000)" fill-rule="nonzero">
            <path d="M102.019139,0 L106,0 L106,8 L102.019139,8 L102.019139,0 Z M95.1291866,4 L94.8995215,4.07692308 C94.8995215,4.07692308 96.277512,5.23076923 96.277512,5.30769231 C96.354067,5.38461538 96.430622,5.38461538 96.354067,5.61538462 C96.277512,5.84615385 96.2009569,6.07692308 96.2009569,6.07692308 C96.2009569,6.07692308 97.4258373,5.84615385 97.5789474,5.76923077 C97.7320574,5.76923077 97.8086124,5.76923077 97.8086124,5.92307692 C97.8086124,6.07692308 97.7320574,7.38461538 97.7320574,7.38461538 L98.1148325,7.38461538 C98.1148325,7.38461538 98.0382775,6 98.0382775,5.92307692 C98.0382775,5.76923077 98.1148325,5.76923077 98.2679426,5.76923077 C98.4210526,5.76923077 99.645933,6.07692308 99.645933,6.07692308 C99.645933,6.07692308 99.569378,5.76923077 99.492823,5.61538462 C99.4162679,5.38461538 99.492823,5.38461538 99.569378,5.30769231 C99.645933,5.23076923 100.947368,4.07692308 100.947368,4.07692308 L100.717703,4 C100.564593,3.92307692 100.641148,3.84615385 100.641148,3.76923077 C100.641148,3.69230769 100.870813,2.92307692 100.870813,2.92307692 C100.870813,2.92307692 100.258373,3.07692308 100.181818,3.07692308 C100.105263,3.07692308 100.028708,3.07692308 100.028708,3 C100.028708,2.92307692 99.8755981,2.61538462 99.8755981,2.61538462 C99.8755981,2.61538462 99.1866029,3.38461538 99.1100478,3.46153846 C98.9569378,3.61538462 98.8038278,3.46153846 98.8803828,3.30769231 C98.8803828,3.15384615 99.2631579,1.53846154 99.2631579,1.53846154 C99.2631579,1.53846154 98.8803828,1.76923077 98.7272727,1.84615385 C98.5741627,1.92307692 98.4976077,1.92307692 98.4976077,1.76923077 C98.4210526,1.61538462 97.9617225,0.769230769 97.9617225,0.692307692 C97.9617225,0.692307692 97.5023923,1.61538462 97.4258373,1.76923077 C97.3492823,1.92307692 97.2727273,1.92307692 97.1961722,1.84615385 C97.0430622,1.76923077 96.6602871,1.53846154 96.6602871,1.53846154 C96.6602871,1.53846154 97.0430622,3.15384615 97.0430622,3.30769231 C97.0430622,3.46153846 96.9665072,3.53846154 96.8133971,3.46153846 L96.0478469,2.61538462 C96.0478469,2.61538462 95.9712919,2.84615385 95.8947368,2.92307692 C95.8947368,3 95.8181818,3.07692308 95.7416268,3 C95.5885167,3 94.9760766,2.84615385 94.9760766,2.84615385 C94.9760766,2.84615385 95.2057416,3.61538462 95.2822967,3.69230769 C95.2822967,3.76923077 95.2822967,3.92307692 95.1291866,4 Z M90,0 L93.9808612,0 L93.9808612,8 L90,8 L90,0 Z" id="Shape" fill="#FF0000"></path>
            <path d="M107.388947,23.9408408 C107.087088,24.6269146 106.48337,24.8556058 106.106046,24.8556058 C105.653257,24.8556058 104.294891,24.7793754 104.294891,21.1965457 C104.294891,21.1965457 104.294891,13.9546557 104.294891,13.4972732 C104.294891,11.1341301 102.483736,9.22836963 97.8049189,9.22836963 C92.7487781,9.22836963 92.6733133,11.7439735 92.6733133,12.3538169 C92.5978485,13.0398907 92.9751725,13.8021949 94.2580739,13.8021949 C95.3900457,13.8021949 95.6919049,12.5062777 95.8428344,12.0488952 C95.993764,11.5152822 96.0692288,9.99067384 98.1067781,9.99067384 C99.8424682,9.99067384 100.898975,11.5152822 100.97444,13.7259644 C100.97444,14.1071165 100.97444,14.3358078 100.97444,14.5644991 C100.97444,14.7169599 100.97444,14.7931903 100.97444,14.9456512 L100.97444,15.0218816 C100.82351,15.7841858 100.446187,16.1653379 99.7670034,16.4702596 C98.861426,16.9276421 96.2201584,17.3087942 95.9182992,17.3850246 C94.8617922,17.6137159 91.9186655,18.3760201 91.9941302,21.5014673 C92.069595,24.5506842 95.0881866,25.61791 97.2012006,25.5416796 C99.2387499,25.4654492 100.446187,24.6269146 100.97444,24.1695321 C101.276299,23.9408408 101.276299,23.9408408 101.502694,24.2457625 C101.804553,24.5506842 102.785595,25.5416796 105.125003,25.5416796 C107.539877,25.5416796 107.841736,24.3982233 107.992665,24.0170712 C108.06813,23.78838 107.539877,23.5596887 107.388947,23.9408408 Z M97.9558485,24.7793754 C95.8428344,24.7793754 95.3145809,23.0260758 95.3145809,22.1113107 C95.3145809,21.2727761 95.7673696,19.5194764 97.8803837,18.2997897 C97.8803837,18.2997897 98.861426,17.6899463 100.748046,16.9276421 C100.82351,16.9276421 100.898975,16.9276421 100.898975,16.9276421 C100.898975,16.9276421 100.97444,17.0038725 100.97444,17.0801029 L100.97444,17.1563334 L100.97444,17.2325638 L100.97444,20.4342415 C100.97444,22.9498453 99.7670034,24.7793754 97.9558485,24.7793754 Z M91.013088,24.703145 C90.7112288,24.6269146 88.8246091,24.8556058 88.8246091,19.0620939 C88.8246091,13.2685819 88.8246091,0.843023373 88.8246091,0.843023373 C88.8246091,0.614332111 88.8246091,0.00448874703 88.1454261,0.00448874703 C87.466243,0.00448874703 82.9383557,0.233180009 82.6364965,0.309410429 C82.3346374,0.309410429 82.108243,0.690562532 82.6364965,0.690562532 C83.16475,0.766792952 85.5796233,0.919253794 85.5796233,4.95946608 C85.5796233,6.94145702 85.5796233,8.92344795 85.5796233,10.3718259 C85.5796233,10.4480564 85.5796233,10.5242868 85.5796233,10.5242868 C85.5796233,10.6767476 85.5796233,10.752978 85.5041585,10.8292085 C85.5041585,10.8292085 85.5041585,10.8292085 85.5041585,10.9054389 C85.4286937,10.9816693 85.3532289,10.9054389 85.1268345,10.752978 C84.7495106,10.4480564 83.0138205,9.38083047 80.8253416,9.38083047 C77.2784966,9.38083047 72.9015389,11.9726648 72.9015389,17.3087942 C72.9015389,23.0260758 76.9011726,25.7703709 81.051736,25.7703709 C83.0892853,25.7703709 84.5231162,24.8556058 85.0513697,24.5506842 C85.655088,24.1695321 85.5796233,24.2457625 85.655088,24.7793754 C85.7305528,25.1605275 85.655088,25.9228317 86.7115951,25.8466013 C87.8435669,25.6941405 90.5602993,25.3892188 91.0885528,25.3129884 C91.6168063,25.0842971 91.4658767,24.7793754 91.013088,24.703145 Z M81.6554543,24.9318363 C78.3350036,24.9318363 76.5993135,20.9678544 76.5993135,17.1563334 C76.5993135,12.9636602 78.9387219,10.1431347 81.4290599,10.2955955 C84.6740458,10.5242868 85.5041585,13.1161211 85.5796233,17.7661767 C85.5796233,18.0710984 85.5796233,18.3760201 85.5796233,18.7571722 C85.5041585,23.3309974 83.6175388,24.9318363 81.6554543,24.9318363 Z M72.8260741,23.9408408 C72.5242149,24.6269146 71.9204966,24.8556058 71.5431727,24.8556058 C71.0903839,24.8556058 69.7320178,24.7793754 69.7320178,21.1965457 C69.7320178,21.1965457 69.7320178,13.9546557 69.7320178,13.4972732 C69.7320178,11.1341301 67.9208628,9.22836963 63.242046,9.22836963 C58.1859052,9.22836963 58.1104404,11.7439735 58.1104404,12.3538169 C58.0349756,13.0398907 58.4122996,13.8021949 59.6952009,13.8021949 C60.8271728,13.8021949 61.1290319,12.5062777 61.2799615,12.0488952 C61.4308911,11.5152822 61.5063559,9.99067384 63.5439051,9.99067384 C65.2795953,9.99067384 66.4115671,11.5152822 66.4115671,13.8021949 L66.4115671,13.8784253 C66.4115671,13.9546557 66.4115671,14.0308861 66.4115671,14.0308861 L66.4115671,14.2595774 C66.4115671,14.3358078 66.4115671,14.4882687 66.4115671,14.5644991 C66.3361023,15.7079554 66.0342431,16.0891075 65.1286657,16.54649 C64.2230882,17.0038725 61.5818206,17.3850246 61.2799615,17.4612551 C60.2234545,17.6899463 57.2803277,18.4522505 57.3557925,21.5776978 C57.4312573,24.6269146 60.4498488,25.6941405 62.5628629,25.61791 C64.6004122,25.5416796 65.8078488,24.703145 66.3361023,24.2457625 C66.6379615,24.0170712 66.6379615,24.0170712 66.8643558,24.3219929 C67.166215,24.6269146 68.1472572,25.61791 70.4866656,25.61791 C72.9015389,25.61791 73.203398,24.4744537 73.3543276,24.0933016 C73.5052572,23.78838 73.0524684,23.5596887 72.8260741,23.9408408 Z M63.4684404,24.7793754 C61.3554263,24.7793754 60.8271728,23.0260758 60.8271728,22.1113107 C60.8271728,21.2727761 61.2799615,19.5194764 63.3929756,18.2997897 C63.3929756,18.2997897 64.3740178,17.6899463 66.2606375,16.9276421 C66.3361023,16.9276421 66.4115671,16.9276421 66.4115671,16.9276421 L66.4115671,17.0038725 C66.4115671,17.0801029 66.4115671,17.1563334 66.4115671,17.3087942 L66.4115671,17.2325638 C66.4115671,17.2325638 66.4115671,17.2325638 66.4115671,17.3087942 L66.4115671,20.5104719 C66.4115671,22.9498453 65.2041305,24.7793754 63.4684404,24.7793754 Z M56.2238207,24.703145 C55.6201024,24.5506842 54.5635954,23.8646104 54.5635954,20.5104719 L54.5635954,14.4120382 C54.5635954,12.9636602 54.7145249,9.22836963 49.0546658,9.22836963 C46.1115391,9.22836963 44.4513138,10.752978 44.3003842,10.8292085 C44.0739898,11.0578997 43.9230602,11.1341301 43.8475955,10.752978 C43.7721307,10.4480564 43.6212011,9.99067384 43.5457363,9.68575216 C43.4702715,9.45706089 43.3193419,9.22836963 42.7910884,9.30460005 C42.2628349,9.38083047 38.9423842,9.91444342 38.3386659,10.0669043 C37.8104124,10.2193651 37.961342,10.4480564 38.3386659,10.5242868 C38.7159899,10.6005172 40.5271448,10.752978 40.5271448,13.8784253 C40.5271448,17.0038725 40.5271448,20.4342415 40.5271448,20.4342415 C40.5271448,24.2457625 39.7724969,24.5506842 39.0933138,24.7793754 C38.1877363,25.0080667 38.6405251,25.3129884 39.017849,25.3129884 C39.017849,25.3129884 45.7342152,25.3129884 45.8851447,25.3129884 C46.3379335,25.3129884 46.5643278,24.8556058 45.6587504,24.703145 C44.7531729,24.5506842 43.9230602,24.0170712 43.9230602,21.0440848 C43.9230602,20.7391631 43.9230602,17.4612551 43.9230602,16.8514117 C43.9230602,15.2505729 43.5457363,10.3718259 47.922694,10.2955955 C51.0167503,10.2193651 51.3186095,12.8111994 51.3186095,14.4882687 L51.3186095,20.9678544 C51.3186095,23.6359191 50.5639616,24.4744537 49.6583841,24.6269146 C48.8282715,24.7793754 48.979201,25.1605275 49.4319898,25.1605275 C49.5829193,25.1605275 56.4502151,25.1605275 56.4502151,25.1605275 C56.827539,25.3129884 57.2048629,24.9318363 56.2238207,24.703145 Z M37.8858772,23.9408408 C37.584018,24.6269146 36.9802997,24.8556058 36.6029758,24.8556058 C36.1501871,24.8556058 34.7918209,24.7793754 34.7918209,21.1965457 C34.7918209,21.1965457 34.7918209,13.9546557 34.7918209,13.4972732 C34.7918209,11.1341301 32.980666,9.22836963 28.3018491,9.22836963 C23.2457083,9.22836963 23.1702435,11.7439735 23.1702435,12.3538169 C23.0947787,13.0398907 23.4721027,13.8021949 24.7550041,13.8021949 C25.8869759,13.8021949 26.188835,12.5062777 26.3397646,12.0488952 C26.4906942,11.5152822 26.566159,9.99067384 28.6037083,9.99067384 C30.3393984,9.99067384 31.3959054,11.5152822 31.4713702,13.7259644 C31.4713702,14.1071165 31.4713702,14.3358078 31.4713702,14.5644991 C31.4713702,14.7169599 31.4713702,14.8694208 31.3959054,14.9456512 L31.3959054,15.0218816 C31.2449758,15.7841858 30.8676519,16.1653379 30.1884688,16.4702596 C29.2828914,16.9276421 26.6416238,17.3087942 26.3397646,17.3850246 C25.2832576,17.6137159 22.3401309,18.3760201 22.4155956,21.5014673 C22.4910604,24.5506842 25.509652,25.61791 27.622666,25.5416796 C29.6602153,25.4654492 30.8676519,24.6269146 31.3959054,24.1695321 C31.6977646,23.9408408 31.6977646,23.9408408 31.9241589,24.2457625 C32.2260181,24.5506842 33.2070603,25.5416796 35.5464688,25.5416796 C37.961342,25.5416796 38.2632011,24.3982233 38.4141307,24.0170712 C38.5650603,23.78838 38.0368068,23.5596887 37.8858772,23.9408408 Z M145.471706,23.7124712 C145.169847,24.3985449 144.566129,24.6272362 144.188805,24.6272362 C143.736016,24.6272362 142.37765,24.5510058 142.37765,20.968176 C142.37765,20.968176 142.37765,13.7262861 142.37765,13.2689036 C142.37765,10.9057605 140.566495,9 135.887678,9 C130.831537,9 130.756073,11.5156039 130.756073,12.1254472 C130.680608,12.811521 131.057932,13.5738252 132.340833,13.5738252 C133.472805,13.5738252 133.774664,12.2779081 133.925594,11.8205256 C134.076523,11.2869126 134.151988,9.76230421 136.189537,9.76230421 C137.925227,9.76230421 138.981734,11.2869126 139.057199,13.4975948 C139.057199,13.8787469 139.057199,14.1074382 139.057199,14.3361294 C139.057199,14.4885903 139.057199,14.6410511 138.981734,14.7172815 L138.981734,14.793512 C138.830805,15.5558162 138.453481,15.9369683 137.774298,16.24189 C136.86872,16.6992725 134.227453,17.0804246 133.925594,17.156655 C132.869087,17.3853463 129.92596,18.1476505 130.001425,21.2730977 C130.076889,24.3223145 133.095481,25.3895404 135.208495,25.31331 C137.246044,25.2370796 138.453481,24.3985449 138.981734,23.9411624 C139.283594,23.7124712 139.283594,23.7124712 139.509988,24.0173928 C139.811847,24.3223145 140.792889,25.31331 143.132298,25.31331 C145.547171,25.31331 145.84903,24.1698537 145.99996,23.7887016 C146.150889,23.5600103 145.622636,23.3313191 145.471706,23.7124712 Z M28.4527787,24.7793754 C26.3397646,24.7793754 25.8115111,23.0260758 25.8115111,22.1113107 C25.8115111,21.1965457 26.2642998,19.5194764 28.3773139,18.2997897 C28.3773139,18.2997897 29.3583561,17.6899463 31.2449758,16.9276421 C31.3204406,16.9276421 31.3959054,16.9276421 31.3959054,16.9276421 C31.3959054,16.9276421 31.4713702,17.0038725 31.4713702,17.0801029 C31.4713702,17.0801029 31.4713702,17.1563334 31.4713702,17.2325638 L31.4713702,17.3087942 L31.4713702,20.5104719 C31.4713702,22.9498453 30.2639336,24.7793754 28.4527787,24.7793754 Z M135.641268,24.8517333 C133.528254,24.8517333 133,23.0984336 133,22.1836686 C133,21.2689036 133.452789,19.5918343 135.565803,18.3721476 C135.565803,18.3721476 136.546845,17.7623042 138.433465,17 C138.50893,17 138.584394,17 138.584394,17 C138.584394,17 138.659859,17.0762304 138.659859,17.1524608 C138.659859,17.1524608 138.659859,17.2286913 138.659859,17.3049217 L138.659859,17.3811521 L138.659859,20.5828298 C138.659859,23.0222032 137.452422,24.8517333 135.641268,24.8517333 Z M21.208159,18.1473288 C20.4535112,20.5867023 19.0196802,24.5506842 13.8126098,24.703145 C8.37914506,24.7793754 5.13415917,21.0440848 4.9832296,14.1071165 C4.75683523,6.71276575 7.92635633,1.07171463 12.8315676,0.919253794 C18.3404971,0.843023373 20.3025816,7.47506996 20.3780464,8.46606543 C20.4535112,9.22836963 21.4345534,9.15213921 21.4345534,8.38983501 C21.4345534,8.0086829 20.9817647,1.45286674 20.8308351,0.690562532 C20.6799055,-0.0717416735 20.0761872,0.233180009 19.9252576,0.538101691 C19.8497928,0.766792952 20.0007224,0.309410429 19.6988633,0.995484214 C19.3970041,1.681558 18.5668914,1.3004059 18.2650323,1.22417548 C17.3594548,0.843023373 15.6237647,-0.0717416735 12.8315676,0.00448874703 C6.41706057,0.156949588 -0.148375993,4.95946608 0.00255358309,13.3448123 C0.153483159,21.5014673 6.64345493,26.0752926 12.680638,25.9990622 C18.1895675,25.9228317 21.2836238,22.4162324 22.1892013,18.3760201 C22.4910604,17.3850246 21.5100182,17.1563334 21.208159,18.1473288 Z" id="Shape" fill="#000000"></path>
        </g>
        <text id=".c" font-family="Baskerville" font-size="39" font-weight="normal" letter-spacing="-3.24" fill="#000000">
            <tspan x="106.033701" y="35">.c</tspan>
        </text>
    </g>
</svg>